<svg xmlns="http://www.w3.org/2000/svg" width="280" height="154" viewBox="0 0 331 182"><path fill="#B0ABAB" d="M221.07 118.99c-4.025-4.553-9.645-9.582-9.645-9.582s-1.004-1.479-4.494-1.066c-3.494.416-12.545-1.123-17.338-8.99-4.789-7.87-5.678-13.865-6.391-18.915 0 0-.354-.965-2.482-1.735-2.131-.768-73.755-29.699-85.626-25.558 0 0 51.432 26.504 81.091 38.338 0 0 7.018 12.424 13.408 16.801 0 0 4.615 3.02 2.604 8.578-2.012 5.562-1.184 8.936 2.311 13.607 3.49 4.674 16.621 10.352 24.549 4.438 7.929-5.916 6.033-11.359 2.013-15.916zm-5.148 9.467c-1.244 2.662-7.453 6.508-14.969 2.189-7.512-4.318-4.791-10.352-4.791-10.352s3.965-8.52 12.896-4.025c8.932 4.497 8.106 9.528 6.864 12.188z"/><path fill="#8C8687" d="M162.067 84.44c4.923 2.008 9.815 4.091 14.721 6.139l.034.014.02.033c1.532 2.613 3.157 5.18 4.918 7.649.878 1.236 1.794 2.445 2.754 3.619.962 1.172 1.972 2.306 3.056 3.365.548.521 1.104 1.04 1.705 1.5.591.467 1.243.873 1.787 1.417 1.09 1.062 1.898 2.447 2.162 3.963.316 1.52-.076 3.075-.549 4.5-.215.727-.481 1.445-.586 2.19-.066.369-.146.737-.204 1.108l-.058 1.126-.021.562.06.56c.048.372.055.75.135 1.116.205.722.347 1.464.689 2.139.555 1.401 1.425 2.655 2.292 3.889.884 1.23 2.053 2.189 3.291 3.047 1.244.857 2.603 1.532 3.979 2.151 1.397.567 2.819 1.099 4.298 1.422 1.465.382 2.977.533 4.485.61 1.506-.018 3.035-.102 4.486-.543 1.482-.345 2.823-1.094 4.088-1.923l.016.021c-1.255.847-2.595 1.618-4.08 1.983-1.456.464-2.993.569-4.512.606-1.521-.057-3.048-.189-4.53-.556-1.494-.309-2.938-.816-4.354-1.383-1.389-.628-2.759-1.312-4.018-2.182-1.249-.865-2.458-1.864-3.349-3.111-.872-1.244-1.749-2.511-2.313-3.94-.348-.688-.493-1.448-.7-2.187-.081-.374-.09-.762-.137-1.142l-.057-.573.026-.573.071-1.147c.062-.378.146-.752.22-1.128.116-.763.389-1.472.611-2.197.488-1.43.886-2.925.587-4.424-.247-1.486-1.032-2.856-2.102-3.914-.529-.538-1.172-.945-1.768-1.423-.598-.471-1.16-.984-1.717-1.501-1.097-1.053-2.119-2.181-3.094-3.347-.973-1.167-1.903-2.37-2.793-3.603-.898-1.226-1.746-2.487-2.582-3.756-.832-1.272-1.636-2.562-2.387-3.886l.053.047c-4.883-2.104-9.78-4.173-14.646-6.316l.013-.021z" opacity=".5"/><path fill="#BDB9B9" d="M214.975 127.297c-.676 1.447-3.471 3.588-7.324 3.588-2.088 0-4.215-.611-6.312-1.82-6.641-3.814-4.494-8.93-4.406-9.131.006-.014.17-.355.496-.852l-1.754-.781c-.283.467-.438.787-.463.844-.031.066-2.979 6.871 5.184 11.562 2.389 1.373 4.832 2.07 7.256 2.07 4.453 0 7.982-2.412 9.041-4.68l.16-.367-1.74-.773-.138.34z"/><path fill="#8C8687" d="M209.395 114.666c-1.857-.936-3.668-1.412-5.379-1.412-4.67 0-7.33 3.416-8.342 5.047l1.754.781c.9-1.375 3.057-3.936 6.588-3.936 1.41 0 2.934.408 4.529 1.207 5.941 2.992 8.197 6.652 6.566 10.604l1.74.773c1.272-3.037 1.721-8.447-7.456-13.064z"/><path fill="#8C8687" d="M170.12 75.175l6.412 2.433 3.2 1.231c.528.208 1.074.404 1.597.635.267.097.521.245.772.399.25.154.48.338.677.571l.015.017.004.027c.143.939.27 1.882.44 2.816.146.938.35 1.866.549 2.793.194.929.463 1.839.691 2.76.3.899.566 1.811.894 2.701.359.878.68 1.773 1.072 2.637l1.233 2.566c.936 1.649 1.791 3.362 3.002 4.828.284.38.596.736.929 1.076.317.353.647.693 1.008 1.003.349.322.702.639 1.087.918.372.294.748.583 1.151.835.392.268.789.526 1.207.751.407.243.826.467 1.257.666.847.427 1.733.771 2.63 1.078 1.794.611 3.675.974 5.562 1.074.931.057 1.894-.072 2.838-.118.509-.002.957.06 1.438.113l.712.221c.219.116.452.216.636.402l.008.008.006.009.066.095-.017-.019c1.207 1.091 2.393 2.217 3.578 3.337l1.744 1.718c.578.575 1.175 1.133 1.723 1.738l1.676 1.786c.563.587 1.123 1.192 1.631 1.829.511.64.983 1.321 1.397 2.031.396.722.748 1.476.945 2.283.238.8.251 1.639.178 2.475-.122.793-.365 1.623-.764 2.342-.372.737-.871 1.396-1.396 2.027l-.846.892-.911.823c-.631.517-1.275 1.031-1.963 1.467-.706.418-1.441.79-2.218 1.049-.767.288-1.572.455-2.377.586-.807.126-1.624.166-2.439.175v-.025c.814-.02 1.629-.068 2.432-.203.8-.141 1.599-.315 2.356-.611.769-.267 1.491-.644 2.183-1.062.685-.446 1.31-.958 1.934-1.481l.894-.827.826-.892c.51-.629.993-1.283 1.347-2.008.383-.717.599-1.475.717-2.291.056-.779.04-1.603-.202-2.369-.072-.396-.258-.759-.382-1.14-.171-.363-.344-.729-.538-1.081-.406-.699-.863-1.361-1.368-1.996-.509-.64-1.056-1.231-1.62-1.822l-1.669-1.783c-.546-.604-1.141-1.162-1.717-1.737l-1.739-1.717c-1.183-1.121-2.359-2.242-3.571-3.339l-.009-.008-.008-.012-.065-.096.013.017c-.149-.155-.368-.252-.562-.357l-.647-.211c-.457-.057-.96-.124-1.398-.125-.953.037-1.889.156-2.859.092-1.908-.118-3.795-.506-5.597-1.131-.899-.314-1.789-.666-2.638-1.102-.432-.203-.851-.43-1.259-.677-.419-.229-.816-.491-1.209-.763-.402-.256-.778-.55-1.151-.847-.384-.283-.736-.604-1.086-.928-.363-.31-.697-.648-1.021-1-.336-.338-.653-.693-.942-1.075-1.231-1.466-2.102-3.175-3.054-4.821-.434-.847-.838-1.71-1.259-2.565-.4-.864-.729-1.761-1.097-2.64-.335-.892-.61-1.806-.919-2.708-.233-.923-.518-1.836-.711-2.77s-.39-1.867-.53-2.809c-.164-.938-.283-1.882-.42-2.824l.019.043c-.17-.204-.391-.386-.624-.531-.235-.146-.474-.29-.745-.392-.521-.235-1.051-.429-1.585-.644l-3.191-1.255-6.372-2.537.009-.024z" opacity=".5"/><path fill="#8C8687" d="M97.116 53.938c2.464 1.189 4.913 2.409 7.36 3.63 2.449 1.219 4.902 2.43 7.332 3.687l3.652 1.87c1.214.629 2.455 1.206 3.681 1.812 2.452 1.211 4.939 2.354 7.407 3.533 4.953 2.323 9.89 4.679 14.822 7.045 2.47 1.174 4.933 2.364 7.388 3.571l7.368 3.615-.026.001.873-.633.018.02-.861.66-.011.008-.015-.007-7.43-3.482c-2.479-1.159-4.948-2.334-7.411-3.526-4.934-2.366-9.862-4.741-14.775-7.15-2.465-1.186-4.911-2.409-7.392-3.564-1.233-.591-2.482-1.153-3.704-1.767l-3.673-1.828c-2.455-1.208-4.886-2.462-7.321-3.708-2.437-1.244-4.872-2.489-7.292-3.765l.01-.022z"/><path fill="#8C8687" d="M100.246 54.479c.731.03 1.463.025 2.193.084.728.076 1.461.128 2.187.228 1.45.211 2.896.447 4.331.743 1.44.267 2.863.618 4.293.932 1.421.353 2.842.708 4.251 1.106 2.823.775 5.631 1.604 8.425 2.476l8.376 2.633c2.785.901 5.568 1.808 8.336 2.759l8.284 2.914 4.131 1.487 4.108 1.547c2.74 1.029 5.471 2.083 8.196 3.15l-.024.002 1.039-.611.014.022-1.023.637-.012.007-.013-.005-16.501-6.001-8.275-2.927c-2.763-.964-5.526-1.925-8.302-2.853l-4.171-1.365c-1.388-.465-2.791-.879-4.192-1.299-2.803-.839-5.619-1.635-8.447-2.382-1.41-.392-2.839-.701-4.251-1.083-1.424-.329-2.841-.693-4.276-.975-1.43-.31-2.869-.56-4.313-.786l-2.173-.273c-.727-.078-1.46-.093-2.19-.142l-.001-.025z" opacity=".4"/><path fill="#8C8687" d="M156.976 82.091l-2.465-1.129-6.472-3.032c-2.685-1.24-5.78-2.767-9.11-4.371-3.32-1.626-6.883-3.316-10.456-4.984l-5.33-2.493-5.101-2.542c-3.305-1.657-6.401-3.181-9.03-4.537l-8.772-4.5.012-.023 8.857 4.328c2.66 1.292 5.734 2.858 9.04 4.512l5.093 2.557 5.293 2.569c3.546 1.724 7.104 3.427 10.458 4.98 3.344 1.576 6.479 3.018 9.133 4.321l6.432 3.117 2.43 1.203-.012.024z"/><path d="M100.245 54.492" fill="none"/><path d="M230.209 48.001c-6.512-3.786-13.371-1.422-24.258 3.312 0 0-12.189 8.994-11.951 13.607.234 4.614 1.773 8.519 8.756 4.375 6.98-4.139 26.861-13.724 26.861-13.724s7.096-3.785.592-7.57z" fill="none"/><path fill="#BDB9B9" d="M235.977 46.165c-5.203-8.757-23.426-4.143-32.184 0-8.754 4.141-14.592 17.077-15.225 18.577-.631 1.498-2.049 1.893-2.049 1.893s-2.191.473-5.148.296c-2.957-.179-4.555 1.005-4.555 1.005l-20.293 12.246c.119 1.834-3.076 3.137-3.076 3.137-7.218 2.543-51.766 35.022-51.766 35.022-.474 2.129 4.258 0 4.258 0 5.644-1.879 11.344-4.082 16.944-6.461 13.305-7.086 27.188-16.096 32.258-18.938 8.519-4.771 4.498-12.622 4.498-12.622l16.879-10.037c3.977-2.19 6.805 1.12 7.953 2.872l7.014.46c9.113 1.064 13.252-.592 13.252-.592s17.516-8.284 27.098-13.49c9.587-5.205 4.142-13.368 4.142-13.368zm-6.36 9.407s-19.881 9.585-26.861 13.724c-6.982 4.143-8.521.239-8.756-4.375-.238-4.614 11.951-13.607 11.951-13.607 10.887-4.734 17.746-7.099 24.258-3.312 6.504 3.784-.592 7.57-.592 7.57z"/><path fill="#8C8687" d="M158.271 81.869s-.883.449-2.45 1.188l-2.7 1.556-3.431 2.149c-2.482 1.627-5.401 3.488-8.483 5.556-3.097 2.045-6.355 4.293-9.583 6.584l-25.82 18.33-.016-.021c0 .001 3.163-2.382 7.966-5.873 2.391-1.76 5.221-3.757 8.249-5.904 3.023-2.152 6.271-4.416 9.54-6.648l9.583-6.588c1.523-1.06 3.023-2.045 4.431-3 1.406-.959 2.775-1.804 4.026-2.605l3.46-2.112 2.735-1.523c1.588-.69 2.482-1.112 2.482-1.112l.011.023z"/><path fill="#D9D6D6" d="M176.52 70.283l-16.88 10.037s4.021 7.851-4.498 12.622c-5.071 2.842-18.954 11.852-32.258 18.938 30.705-13.039 58.546-31.402 58.546-31.402l2.842-7.334.201.013c-1.149-1.754-3.977-5.064-7.953-2.874zM168.379 86.735c-2.688 0-4.876-2.188-4.876-4.878 0-2.688 2.188-4.876 4.876-4.876 2.69 0 4.88 2.188 4.88 4.876 0 2.69-2.19 4.878-4.88 4.878z"/><path fill="#8C8687" d="M168.379 77.046c2.66 0 4.814 2.154 4.814 4.811 0 2.658-2.154 4.813-4.814 4.813-2.657 0-4.811-2.155-4.811-4.813 0-2.657 2.154-4.811 4.811-4.811m0-.13c-2.725 0-4.941 2.216-4.941 4.941 0 2.726 2.216 4.943 4.941 4.943 2.727 0 4.944-2.217 4.944-4.943 0-2.725-2.218-4.941-4.944-4.941z"/><path fill="#938D8E" d="M168.379 80.597c.959 0 1.736.563 1.736 1.26 0-.958-.777-1.734-1.736-1.734-.957 0-1.734.776-1.734 1.734 0-.696.777-1.26 1.734-1.26z"/><path fill="#E8E7E6" d="M168.379 83.121c-.957 0-1.734-.564-1.734-1.264 0 .959.777 1.736 1.734 1.736.959 0 1.736-.777 1.736-1.736 0 .699-.777 1.264-1.736 1.264z"/><ellipse fill="#fff" cx="168.38" cy="78.408" rx="1.735" ry=".811"/><path fill="#D9D6D6" d="M168.379 85.645c-2.483 0-4.528-1.882-4.784-4.302-.016.171-.027.342-.027.514 0 2.658 2.154 4.813 4.811 4.813 2.66 0 4.814-2.155 4.814-4.813 0-.172-.01-.343-.027-.514-.258 2.42-2.299 4.302-4.787 4.302z"/><path fill="#D6D3D3" d="M202.273 68.483c-1.814 1.077-3.299 1.621-4.416 1.621-1.23 0-2.674-.594-2.912-5.233-.113-2.236 3.869-6.405 7.789-9.772l-1.912-.853c-3.598 3.155-7.926 7.62-7.768 10.723.24 4.663 1.855 7.029 4.803 7.029 1.482 0 3.244-.618 5.381-1.887 3.305-1.959 9.582-5.178 15.236-8.005l-2.238-.993c-5.295 2.659-10.89 5.548-13.963 7.37z"/><path fill="#8C8687" d="M233.9 51.516c.027-1.617-1.053-3.075-3.217-4.333-2.318-1.351-4.762-2.009-7.471-2.009-5.104 0-11.01 2.389-17.643 5.272l-.098.041-.084.064c-.486.359-2.391 1.787-4.566 3.695l1.912.853c1.287-1.105 2.566-2.125 3.691-2.961 7.572-3.288 12.496-5.069 16.787-5.069 2.363 0 4.494.572 6.52 1.749 1.049.611 2.293 1.567 2.273 2.659-.023 1.431-2.107 2.869-2.801 3.242-.111.053-6.307 3.042-12.969 6.393l2.238.993c6.094-3.046 11.467-5.638 11.588-5.698.389-.206 3.788-2.099 3.84-4.891z"/><path fill="#8C8687" d="M236.829 50.099c.171.838.215 1.71.111 2.566-.09.866-.419 1.676-.828 2.44-.416.764-1.005 1.41-1.616 2.019-.648.569-1.334 1.102-2.08 1.536-.729.467-1.516.814-2.275 1.208l-2.299 1.149-4.6 2.297c-3.08 1.504-6.099 3.127-9.17 4.648l-9.244 4.505-.007.003-.006.002c-.369.12-.742.222-1.12.293-.377.072-.748.187-1.131.22-.762.083-1.52.231-2.285.261l-2.297.094c-.383.026-.771-.015-1.149-.023l-1.145-.045c-.763-.011-1.525-.108-2.287-.179-.766-.075-1.519-.153-2.28-.202l-4.567-.359.002-.026 4.574.243c.763.037 1.53.104 2.285.166.76.058 1.515.143 2.28.141l1.146.027c.384.001.76.036 1.14.004l2.279-.095c.761-.028 1.509-.173 2.265-.254.38-.032.743-.145 1.115-.215.374-.07.738-.168 1.096-.283l-.013.005 9.277-4.424c1.556-.718 3.07-1.521 4.608-2.278 1.536-.759 3.056-1.551 4.578-2.337l4.568-2.357 2.284-1.178c.752-.411 1.546-.744 2.268-1.193.742-.419 1.421-.935 2.066-1.487.607-.59 1.192-1.216 1.609-1.959.408-.73.736-1.539.851-2.381.129-.84.114-1.7-.029-2.547l.026-.005zM179.267 68.375l-.676.051-.66.13-.643.202-.62.264-.043-.082.863-.539-.007.005c1.298-.79 2.832-.933 4.288-.857l1.089.028 1.095-.072c.726-.066 1.471-.053 2.181-.184.358-.073.717-.078 1.039-.233.323-.145.644-.312.923-.534.563-.432 1.049-.979 1.339-1.635.608-1.332 1.267-2.645 1.975-3.927 1.413-2.566 3.008-5.039 4.849-7.319.457-.572.922-1.138 1.419-1.677.474-.56.994-1.076 1.52-1.587 1.041-1.035 2.202-1.938 3.42-2.761.636-.365 1.271-.74 1.933-1.062.67-.295 1.331-.606 2.008-.888l2.051-.801 2.083-.705c1.401-.425 2.805-.861 4.237-1.173 1.422-.365 2.871-.602 4.315-.854l2.187-.257c.729-.091 1.467-.081 2.199-.125 1.479-.079 2.929.052 4.396.257 1.436.289 2.896.623 4.176 1.377 1.285.714 2.408 1.733 3.168 3l-.002-.004c.157.25.275.512.406.77.133.256.217.535.328.801.234.529.312 1.109.476 1.661l-.025.005c-.172-.548-.258-1.124-.499-1.647-.114-.263-.202-.539-.339-.791-.133-.253-.257-.515-.409-.75l-.002-.004c-.772-1.244-1.895-2.229-3.171-2.914-1.269-.724-2.719-1.032-4.14-1.295-1.431-.187-2.911-.272-4.356-.208-.728.044-1.458.032-2.183.121l-2.173.252c-1.438.25-2.88.482-4.296.843-1.428.308-2.825.74-4.223 1.161l-2.079.689-2.048.772c-.678.273-1.345.577-2.018.863-.655.309-1.29.674-1.925 1.028-1.214.805-2.377 1.695-3.422 2.716-.527.505-1.051 1.015-1.527 1.569-.502.532-.971 1.093-1.417 1.672-1.813 2.294-3.375 4.778-4.761 7.35-.694 1.286-1.336 2.598-1.931 3.933-.298.691-.804 1.283-1.404 1.726-.297.23-.633.402-.977.552-.348.161-.74.169-1.097.237-.732.126-1.462.105-2.192.165l-1.096.061-1.105-.038c-1.439-.097-2.962.057-4.202.781l-.007.005-.882.521-.044-.082.634-.251.654-.188.671-.115.677-.035.002.026z" opacity=".5"/></svg>