<svg xmlns="http://www.w3.org/2000/svg" width="280" height="154" viewBox="0 0 331 182"><path fill="#BDB9B9" d="M206.219 123.973c2.066-6.893 2.152-16.346 7.514-19 2.99 5.961-.055 16.697-2.93 22.26-.762.547-1.416 1.225-2.129 1.826-1.586-1.043-1.949-3.133-2.455-5.086zM123.77 123.973c-2.068-6.893-2.154-16.346-7.515-19-2.99 5.961.056 16.697 2.932 22.26.76.547 1.414 1.225 2.126 1.826 1.587-1.043 1.949-3.133 2.457-5.086z"/><path fill="#252A26" d="M215.939 80.006c-4.033-25.916-19.744-43.256-43.857-45.906-2.439-.268-4.779-.38-7.061-.397-2.266.017-4.614.129-7.032.397-24.117 2.65-39.838 19.99-43.857 45.906-.537 3.214-1.12 6.577-1.17 9.985-.356 2.83 2.95 1.877 2.746 4.568-.043 12.744 1.68 23.725 4.922 33.061.69 2.701 2.007 7.752 4.906 6.264 3.793-1.064-.032-6-.531-7.967-1.721-5.342-2.907-11.252-3.61-17.66-.53-4.363-.812-8.984-.795-13.914.183-2.47-2.797-1.598-2.475-4.195.045-3.131.57-6.221 1.054-9.171 3.621-23.802 17.783-39.73 39.51-42.166 2.179-.246 4.294-.346 6.333-.363 2.057.017 4.167.117 6.36.363 21.725 2.435 35.881 18.364 39.512 42.166.461 2.951 1.014 6.041 1.059 9.171.32 2.597-2.662 1.725-2.479 4.195.018 4.922-.264 9.541-.793 13.896-.703 6.416-1.889 12.334-3.611 17.678-.502 1.967-4.322 6.902-.527 7.967 2.898 1.488 4.213-3.562 4.902-6.264 3.24-9.336 4.965-20.316 4.918-33.061-.201-2.691 3.107-1.738 2.75-4.568-.052-3.408-.662-6.771-1.174-9.985z"/><path fill="#777071" d="M211.951 90.147c-.045-3.131-.598-6.221-1.059-9.171-3.631-23.802-17.787-39.73-39.512-42.166-2.193-.246-4.303-.346-6.36-.363-2.039.017-4.155.117-6.333.363-21.727 2.435-35.889 18.364-39.51 42.166-.483 2.951-1.008 6.041-1.054 9.171-.322 2.597 2.658 1.725 2.475 4.195-.016 4.93.266 9.551.795 13.914-.475-4.34-.735-8.902-.765-13.697-.292-2.798 2.304-2.496 2.716-4.531.198-3.533.585-6.307 1.161-9.948h.003c4.529-21.84 16.688-35.191 40.511-36.642 23.852 1.45 36.012 14.802 40.54 36.642h.008c.574 3.641.959 6.415 1.162 9.948.408 2.035 3.004 1.751 2.713 4.55-.031 4.789-.289 9.336-.764 13.668.529-4.354.811-8.977.793-13.898-.182-2.473 2.8-1.604 2.48-4.201z"/><path fill="#252A26" d="M142.589 130.705c-2.49-13.066-.849-30.463-10.202-36.363-6.631 10.393-3.076 30.707 1.154 41.486 1.295 1.148 2.37 2.516 3.562 3.762 3.12-1.615 4.182-5.391 5.486-8.885z"/><path fill="#BDB9B9" d="M133.542 135.828c-1.64-4.178-3.171-9.797-4.053-15.709h-7.982c.77 5.266 2.125 10.275 3.583 13.988 2.668 2.371 4.226 5.855 8.75 6.291 1.3-.045 2.364-.342 3.265-.809-1.194-1.245-2.269-2.612-3.563-3.761zM132.388 94.342l-.177-.129c-2.136-.105-4.043-.037-5.495.564-3.399 2.736-5.072 7.346-5.636 12.602h7.736c.295-4.967 1.354-9.561 3.572-13.037z"/><path fill="#D9D6D6" d="M129.042 116.48h-7.972c.109 1.219.26 2.434.436 3.639h7.982c-.179-1.205-.325-2.42-.446-3.639zM128.723 109.199c.014-.615.056-1.215.092-1.82h-7.736c-.063.598-.102 1.209-.137 1.82h7.781z"/><path fill="#E9E8E7" d="M120.943 109.199c-.139 2.365-.09 4.818.127 7.281h7.972c-.241-2.443-.37-4.895-.319-7.281h-7.78z"/><path fill="#252A26" d="M129.294 103.07c-1.465 8.641.098 19.299 2.461 27.434.077.123.139.248.255.373 1.918-.996 3.464-3.318 4.266-5.465-1.529-8.023-1.249-18.703-6.982-22.342z"/><path fill="#777071" d="M120.554 94.225c1.296 0 2.347-1.143 2.347-3.43 0-2.294-1.05-3.435-2.347-3.435h-5.43c-1.297 0-2.347 1.141-2.347 3.435 0 2.288 1.05 3.79 2.347 3.79"/><path fill="#BDB9B9" d="M112.777 90.794l.012.206h10.099l.013-.206c0-.628-.084-1.159-.225-1.614h-9.674c-.141.455-.225.987-.225 1.614z"/><ellipse fill="#777071" cx="120.54" cy="90.432" rx="2.36" ry="3.81"/><ellipse fill="#E9E8E7" cx="120.54" cy="90.432" rx="1.848" ry="2.982"/><ellipse fill="#BDB9B9" cx="120.199" cy="90.432" rx="1.109" ry="2.341"/><path fill="#252A26" d="M187.398 130.705c2.49-13.066.85-30.463 10.201-36.363 6.631 10.393 3.076 30.707-1.154 41.486-1.295 1.148-2.369 2.516-3.561 3.762-3.118-1.615-4.181-5.391-5.486-8.885z"/><path fill="#BDB9B9" d="M196.445 135.828c1.641-4.178 3.172-9.797 4.055-15.709h7.982c-.77 5.266-2.127 10.275-3.582 13.988-2.67 2.371-4.229 5.855-8.752 6.291-1.301-.045-2.363-.342-3.264-.809 1.192-1.245 2.266-2.612 3.561-3.761zM197.6 94.342l.178-.129c2.137-.105 4.043-.037 5.494.564 3.4 2.736 5.072 7.346 5.637 12.602h-7.736c-.296-4.967-1.357-9.561-3.573-13.037z"/><path fill="#D9D6D6" d="M200.947 116.48h7.971c-.109 1.219-.26 2.434-.436 3.639h-7.982c.18-1.205.324-2.42.447-3.639zM201.264 109.199c-.012-.615-.055-1.215-.092-1.82h7.736c.064.598.102 1.209.137 1.82h-7.781z"/><path fill="#E9E8E7" d="M209.045 109.199c.139 2.365.09 4.818-.127 7.281h-7.971c.24-2.443.369-4.895.316-7.281h7.782z"/><path fill="#252A26" d="M200.693 103.07c1.465 8.641-.098 19.299-2.463 27.434-.076.123-.137.248-.252.373-1.918-.996-3.465-3.318-4.268-5.465 1.53-8.023 1.251-18.703 6.983-22.342z"/><path fill="#777071" d="M209.436 94.225c-1.297 0-2.348-1.143-2.348-3.43 0-2.294 1.051-3.435 2.348-3.435h5.428c1.297 0 2.348 1.141 2.348 3.435 0 2.288-1.051 3.79-2.348 3.79"/><path fill="#BDB9B9" d="M217.211 90.794l-.012.206h-10.1l-.012-.206c0-.628.084-1.159.223-1.614h9.676c.141.455.225.987.225 1.614z"/><ellipse fill="#777071" cx="209.448" cy="90.432" rx="2.36" ry="3.81"/><ellipse fill="#E9E8E7" cx="209.448" cy="90.432" rx="1.849" ry="2.982"/><ellipse fill="#BDB9B9" cx="209.789" cy="90.432" rx="1.109" ry="2.341"/></svg>