<svg xmlns="http://www.w3.org/2000/svg" xmlns:xlink="http://www.w3.org/1999/xlink" width="280" height="154" viewBox="0 0 331 182"><path fill="#D9D6D6" d="M159.235 61.848h-37.262s3.759 75.505 4.414 78.935c.652 3.432 2.451 3.271 2.451 3.271h52.787s1.799.16 2.451-3.271c.652-3.43 4.413-78.935 4.413-78.935h-29.254z"/><defs><path id="a" d="M157.927 28.693v63.491h24.49l2.783-30.332h3.288l-1.554 30.332h33.013v-63.491z"/></defs><clipPath id="b"><use xlink:href="#a" overflow="visible"/></clipPath><path clip-path="url(#b)" fill="#D9D6D6" d="M201.001 77.844h-.062.062zM197.618 77.844h-.052.052zM164.234 77.844h-.051.051z"/><path clip-path="url(#b)" fill="#EEB875" d="M214.37 66.565h-.067.067zM171.688 66.565h-.066.066zM209.166 66.565h-.052.052zM176.875 66.565h-.05.05z"/><circle clip-path="url(#b)" fill="#F9E7D1" stroke="#E6952B" stroke-width="1.616" stroke-miterlimit="10" cx="188.488" cy="61.542" r="26.557"/><path clip-path="url(#b)" fill="#E6952B" d="M198.012 41.801c-2.919-1.433-6.201-2.239-9.673-2.239s-6.752.807-9.673 2.239l9.673 18.188 9.673-18.188zM176.079 43.296c-5.477 3.686-9.196 9.774-9.665 16.751l20.581.72-10.916-17.471zM166.414 63.037c.469 6.98 4.188 13.065 9.665 16.751l10.916-17.469-20.581.718zM178.666 81.283c2.921 1.433 6.201 2.242 9.673 2.242 3.47 0 6.752-.809 9.671-2.242l-9.671-18.188-9.673 18.188zM210.262 63.039l-20.579-.719 10.916 17.469c5.476-3.687 9.194-9.772 9.663-16.75zM210.262 60.049c-.467-6.978-4.187-13.064-9.663-16.753l-10.916 17.471 20.579-.718z"/><path opacity=".6" fill="#D9D6D6" d="M159.235 61.848h-37.262s3.759 75.505 4.414 78.935c.652 3.432 2.451 3.271 2.451 3.271h52.787s1.799.16 2.451-3.271c.652-3.43 4.413-78.935 4.413-78.935h-29.254z"/><path fill="#EEB875" d="M158.856 70.184h-33.742999999999995s3.404 50.586 3.996 52.885c.59 2.3 2.22 2.189 2.22 2.189h47.803s1.627.11 2.219-2.189c.593-2.299 3.996-52.885 3.996-52.885h-26.491z"/><path opacity=".3" fill="#C8C4C4" d="M133.33 140.783c-.494-3.43-3.349-78.935-3.349-78.935h-8.009s3.759 75.505 4.414 78.935c.652 3.432 2.451 3.271 2.451 3.271h6.293c-.272-.018-1.366-.275-1.8-3.271zM180.479 61.848s-2.854 75.505-3.351 78.935c-.432 2.996-1.526 3.253-1.799 3.271h6.294s1.799.16 2.451-3.271c.652-3.43 4.413-78.935 4.413-78.935h-8.008z"/><path opacity=".3" fill="#F0EEEE" d="M137.017 140.783c-.413-3.43-2.787-78.935-2.787-78.935h-4.248s2.854 75.505 3.349 78.935c.434 2.996 1.528 3.253 1.8 3.271h3.3819999999999997c-.228-.018-1.138-.275-1.496-3.271z"/><g opacity=".1" fill="#413C3C"><path d="M127.467 140.783c-.629-3.432-4.248-78.935-4.248-78.935h-1.246s3.759 75.503 4.414 78.935c.652 3.432 2.451 3.269 2.451 3.269h.91c-.346-.016-1.734-.274-2.281-3.269zM187.24 61.848s-3.617 75.503-4.246 78.935c-.549 2.995-1.936 3.253-2.28 3.269h.91s1.799.163 2.451-3.269l4.413-78.935h-1.248z"/></g><g opacity=".8"><path fill="#E89E3F" d="M131.944 123.068c-.528-2.299-3.562-52.885-3.562-52.885h-3.269s3.404 50.586 3.996 52.885c.59 2.3 2.22 2.189 2.22 2.189h2.527c-.292-.009-1.454-.182-1.912-2.189zM182.079 70.184s-3.034 50.586-3.562 52.885c-.461 2.007-1.623 2.18-1.913 2.189h2.528s1.627.11 2.219-2.189c.593-2.299 3.996-52.885 3.996-52.885h-3.268z"/><path fill="#ECAC5E" d="M178.518 123.068c.527-2.299 3.562-52.885 3.562-52.885h-6.537s-2.296 50.586-2.694 52.885c-.349 2.007-1.229 2.18-1.447 2.189h5.204c.289-.009 1.451-.182 1.912-2.189zM137.613 123.068c-.4-2.299-2.694-52.885-2.694-52.885h-6.537s3.034 50.586 3.562 52.885c.458 2.007 1.621 2.18 1.913 2.189h5.204000000000001c-.221-.009-1.101-.182-1.448-2.189z"/><path fill="#EEB875" d="M172.848 123.068c.398-2.299 2.694-52.885 2.694-52.885h-40.625s2.294 50.586 2.694 52.885c.347 2.007 1.227 2.18 1.447 2.189h32.342000000000006c.219-.009 1.099-.182 1.448-2.189z"/></g><path opacity=".3" fill="#FDF6EF" d="M131.316 141.438c0-4.873 10.707-8.824 23.914-8.824s23.912 3.951 23.912 8.824"/><path opacity=".3" fill="#FDF6EF" d="M171.268 125.32c-.223 3.898-2.885 6.916-5.949 6.743-3.063-.176-5.367-3.476-5.146-7.376l2.931-51.48c.222-3.896 2.886-6.916 5.948-6.742 3.064.175 5.368 3.477 5.147 7.375l-2.931 51.48z"/></svg>