<svg xmlns="http://www.w3.org/2000/svg" width="341" height="182" viewBox="0 0 620 330"><path fill="#ffffff" d="M206.042 109.388s2.843 35.866-28.232 35.866h-34.933c-31.075 0-28.232-35.866-28.232-35.866h-9.139v112.277h9.139s-2.843-35.866 28.232-35.866h34.933c31.076 0 28.233 35.866 28.233 35.866h9.139v-112.277h-9.14zM158.454 328.246c-22.362 0-42.982-4.177-61.876-12.517s-35.189-19.838-48.887-34.481c-13.698-14.642-24.407-31.8-32.119-51.483-7.719-19.677-11.572-40.696-11.572-63.058 0-20.782 3.616-41.012 10.864-60.694 7.24-19.677 17.631-37.153 31.174-52.43 13.536-15.27 29.832-27.55 48.888-36.842 19.048-9.285 40.222-13.934 63.529-13.934 22.982 0 44.164 4.015 63.529 12.044 19.367 8.03 36.053 19.211 50.067 33.536 14.008 14.333 24.953 31.255 32.828 50.776 7.868 19.528 11.809 40.783 11.809 63.766 0 20.154-3.779 40.148-11.336 59.987-7.558 19.837-18.185 37.551-31.883 53.138-13.697 15.586-30.31 28.184-49.832 37.786-19.529 9.602-41.256 14.406-65.183 14.406zm3.779-18.421c17.631 0 32.746-3.69 45.344-11.077 12.591-7.388 22.982-17.529 31.174-30.421 8.186-12.887 14.245-28.061 18.186-45.508 3.933-17.447 5.904-36.23 5.904-56.348 0-18.864-1.971-37.093-5.904-54.703-3.94-17.61-10.155-33.249-18.658-46.924-8.502-13.676-19.602-24.679-33.3-33.012-13.698-8.324-30.31-12.495-49.831-12.495-17.949 0-33.145 3.934-45.581 11.794-12.442 7.86-22.517 18.392-30.229 31.595-7.72 13.203-13.225 28.451-16.531 45.743-3.306 17.292-4.959 35.366-4.959 54.223 0 20.754 2.044 40.09 6.14 58.009 4.089 17.92 10.392 33.484 18.894 46.688 8.502 13.202 19.366 23.579 32.592 31.122 13.222 7.542 28.81 11.314 46.759 11.314zM614.861 39.25c-5.219-35.864-49.086-47.967-73.938-22.973-4.143 4.166-7.208 9.013-9.532 14.402-5.058 11.719-9.224 23.793-14.421 35.463-8.212 18.436-20.291 33.735-36.284 45.992-3.308 2.535-6.61 5.072-9.869 7.667-1.041.828-1.819 1.099-3.058.175-14.019-10.447-27.081-21.798-36.372-36.921-6.817-11.1-11.589-23.12-16.27-35.197-2.812-7.255-5.166-14.759-9.132-21.467-7.991-13.521-19.996-21.368-35.684-22.607-6.607-.521-14.897.94-21.082 3.247-25.778 9.616-30.665 45.554-17.249 66.977 14.894 23.778 45.128 29.04 65.455 8.736 2.89-2.886 4.875-2.688 7.383.641 2.344 3.115 4.356 6.457 6.187 9.9 9.656 18.163 19.448 36.248 31.465 53.005 1.218 1.697.445 2.804-.478 4.104-25.728 36.288-51.511 72.537-77.127 108.903-7.055 10.017-11.262 21.299-12.326 33.544-1.026 11.784 2.234 22.588 8.505 32.535 1.297 2.057 2.16 2.133 3.687.31.463-.555.881-1.151 1.311-1.734 33.755-45.915 67.508-91.83 101.264-137.745 2.125-2.891 2.132-2.891 4.289.059 26.166 35.75 52.334 71.501 78.498 107.251 7.651 10.455 15.291 20.92 22.942 31.373 2.331 3.187 4.606 3.064 6.631-.336 4.678-7.866 7.325-16.341 7.4-25.521.112-13.868-4.2-26.549-11.99-37.737-25.727-36.954-51.8-73.666-77.81-110.42-1.432-2.022-1.589-3.427-.092-5.487 8.529-11.746 15.93-24.203 22.969-36.887 4.698-8.469 8.802-17.284 14.372-25.257 3.107-4.446 5.181-4.719 8.771-.786 3.569 3.91 7.806 6.676 12.721 8.551 11.85 4.525 23.462 4.75 34.842-1.543 18.123-10.023 26.898-30.462 24.022-50.217zm-245.989 38.259c-15.396 0-27.878-12.48-27.878-27.876 0-15.395 12.481-27.876 27.878-27.876 15.395 0 27.875 12.481 27.875 27.876 0 15.395-12.48 27.876-27.875 27.876zm101.187 79.001c-5.518 0-9.991-4.473-9.991-9.992 0-5.518 4.474-9.991 9.991-9.991s9.992 4.473 9.992 9.991c0 5.519-4.475 9.992-9.992 9.992zm101.628-79.001c-15.396 0-27.877-12.48-27.877-27.876 0-15.395 12.481-27.876 27.877-27.876 15.396 0 27.875 12.481 27.875 27.876 0 15.395-12.479 27.876-27.875 27.876z"/></svg>