<svg xmlns="http://www.w3.org/2000/svg" width="1184" height="256" viewBox="0 0 1184 256"><g fill="#ffffff"><path d="M394.842 62.565c0 14.252 2.674 28.725 5.121 42.754h-1.779l-54.78-93.075h-58.563v37.518c-16.308-25.241-45.847-40.192-79.436-40.192-27.197 0-51.717 9.83-68.752 26.938v-24.264h-128.259v54.553l33.625-1.559v114.895h61.008v-114.894l14.895.691c-3.418 9.336-5.375 19.578-5.375 30.704 0 53.891 41.643 86.176 92.858 86.176 33.702 0 63.165-14.059 79.436-38.973v36.297h58.34v-54.551c0-11.135-1.781-22.045-3.783-33.625h1.779l53.665 88.176h58.34v-167.89h-58.34v50.321zm-189.437 67.247c-18.482 0-31.398-13.135-31.398-32.285 0-17.815 12.025-32.735 31.398-32.735 19.369 0 31.395 14.92 31.395 32.735 0 19.15-12.916 32.285-31.395 32.285zm947.775-117.568h-68.578l-12.027 28.055c-2.23 5.123-3.781 10.467-5.57 15.811h-1.777l-18.704-43.866h-107.267v93.521c0 13.139-.445 24.715-16.7 24.715-16.254 0-16.703-11.576-16.703-24.715v-93.521h-61.008v31.461c-16.598-22.685-51.071-34.135-76.986-34.135-52.77 0-93.074 32.958-93.074 87.731l.055 1.174-9.289-10.526c-7.794 9.129-15.591 18.706-25.829 25.387l-15.141-15.366c18.48-5.565 32.73-22.264 32.73-41.86 0-31.399-34.508-46.54-61.449-46.54-28.506 0-61.907 13.805-61.907 46.983 0 13.582 6.902 22.49 16.479 31.396-12.033 2.309-23.438 7.229-31.344 15.221v-90.926h-61.01v167.89h61.01v-18.965c12.662 15.164 34.742 21.641 56.506 21.641 20.266 0 36.07-4.23 52.992-15.363l11.133 12.688h70.142l-38.746-36.293 11.75-8.861c14.441 30.607 46.801 47.83 84.547 47.83 26.056 0 53.446-10.465 71.251-29.84 4.27-4.602 7.574-9.281 10.207-14.059 9.707 29.949 36.59 43.898 73.684 43.898 46.981 0 77.712-22.27 77.712-71.258v-62.165l35.793 58.381v72.365h59.673v-72.365l55.754-92.714h3.023v9.012h3.422v-9.012h3.191v-2.794h-7.953l.008-.016zm-572.684 128.702c-8.018 0-15.141-4.008-15.141-12.693 0-6.234 5.344-9.793 10.02-12.914l21.152 21.152c-5.343 2.229-9.795 4.455-16.031 4.455zm16.699-70.811c-4.004-2.225-8.238-8.459-8.238-13.137 0-6.01 4.453-10.912 10.688-10.912 4.898 0 9.133 4.902 9.133 9.799-.001 6.235-6.462 11.36-11.583 14.25zm247.651 11.135h-80.106v39.637h27.61c-2.891 10.242-15.142 14.693-24.712 14.693-19.82 0-31.395-17.365-31.395-35.846 0-20.266 12.02-38.969 33.844-38.969 9.797 0 18.485 4.453 23.157 12.914l51.602-18.945v26.516zm326.748-69.01l-2.398 6.816h-.055l-2.398-6.816h-4.504v11.807h2.797v-9.012h.055l3.223 9.012h1.711l3.223-9.012h.059v9.012h2.793v-11.807h-4.506zM674.329 215.01v-22.29h3.344v52.517h-3.344v-27.094h-31.899v27.094h-3.344v-52.517h3.344v22.29h31.899zM694.11 227.963l-7.031 17.273h-3.418l22.012-54.259 21.945 54.259h-3.418l-7.035-17.273h-23.055zm11.563-28.488l-10.309 25.355h20.551l-10.242-25.355zM736.95 245.236h-3.348v-52.516h3.348v52.516zM774.212 245.236h-3.832l-17.137-24.867h-1.668v24.867h-3.344v-52.516h6.547c4.246 0 8.43.07 11.98 2.649 3.762 2.641 5.293 6.82 5.293 11.281 0 9.125-6.34 13.859-15.047 13.719l17.208 24.867zm-18.387-28c3.273 0 6.547-.141 9.191-2.438 2.508-2.02 3.691-5.156 3.691-8.289 0-3.898-1.812-7.801-5.57-9.473-2.789-1.324-6.34-1.184-9.406-1.184h-2.156v21.383h4.25zM782.22 192.72h9.474c7.66 0 13.723 1.25 19.504 6.618 5.504 5.152 8.359 12.188 8.359 19.711 0 7.242-2.789 14.141-8.078 19.227-5.781 5.57-11.98 6.961-19.785 6.961h-9.474v-52.517zm9.403 49.384c6.895 0 12.609-1.391 17.625-6.34 4.457-4.457 6.965-10.445 6.965-16.715 0-6.688-2.645-12.957-7.594-17.484-5.016-4.527-10.445-5.711-16.996-5.711h-6.06v46.25h6.06zM853.615 245.236h-3.832l-17.137-24.867h-1.668v24.867h-3.344v-52.516h6.547c4.25 0 8.43.07 11.98 2.649 3.762 2.641 5.293 6.82 5.293 11.281 0 9.125-6.34 13.859-15.043 13.719l17.204 24.867zm-18.386-28c3.273 0 6.547-.141 9.195-2.438 2.504-2.02 3.688-5.156 3.688-8.289 0-3.898-1.809-7.801-5.57-9.473-2.789-1.324-6.34-1.184-9.402-1.184h-2.16v21.383h4.249zM864.971 195.854v19.086h21.176v3.133h-21.176v24.031h21.73v3.133h-25.074v-52.517h25.074v3.134h-21.73zM921.248 201.357c-2.367-3.762-5.715-6.199-10.656-6.199-5.645 0-9.891 4.523-9.891 10.031 0 5.5 5.223 7.797 9.473 9.82l10.027 5.223c3.973 2.508 5.988 5.711 5.988 10.449 0 8.703-7.938 15.25-16.434 15.25-7.316 0-13.027-4.523-15.465-11.281l2.926-1.324c2.227 5.574 6.336 9.473 12.68 9.473 6.895 0 12.953-5.43 12.953-12.398 0-5.918-6.059-8.43-10.59-10.656l-9.473-5.016c-3.48-2.156-5.43-5.227-5.43-9.402 0-7.801 5.57-13.306 13.441-13.306 5.293 0 10.309 2.856 12.816 7.384l-2.365 1.952zM959.14 201.357c-2.367-3.762-5.711-6.199-10.656-6.199-5.645 0-9.891 4.523-9.891 10.031 0 5.5 5.223 7.797 9.473 9.82l10.027 5.223c3.973 2.508 5.992 5.711 5.992 10.449 0 8.703-7.941 15.25-16.438 15.25-7.316 0-13.027-4.523-15.465-11.281l2.926-1.324c2.23 5.574 6.336 9.473 12.68 9.473 6.895 0 12.953-5.43 12.953-12.398 0-5.918-6.059-8.43-10.59-10.656l-9.473-5.016c-3.48-2.156-5.434-5.227-5.434-9.402 0-7.801 5.574-13.306 13.445-13.306 5.293 0 10.312 2.856 12.816 7.384l-2.365 1.952zM976.065 245.236h-3.344v-52.516h3.344v52.516zM1034.784 246.979l-44.094-46.875v45.133h-3.344v-53.216l44.09 46.528v-45.829h3.348v54.259zM1095.312 219.955c.137 6.617-.836 12.398-5.508 17.484-5.012 5.43-12.535 8.492-19.918 8.492-14.555 0-26.958-12.258-26.958-26.742 0-15.047 12.329-27.169 27.376-27.169 9.543 0 17.273 4.739 22.773 12.263l-2.715 2.156c-4.668-6.965-11.77-11.281-20.266-11.281-12.816 0-23.825 11.211-23.825 23.82 0 12.953 10.728 23.82 23.825 23.82 5.641 0 11.145-2.297 15.461-5.781 4.527-3.828 6.203-8.219 6.406-13.93h-18.805v-3.133h22.154z"/></g></svg>